<svg xmlns="http://www.w3.org/2000/svg" xml:space="preserve" style="fill-rule:evenodd;clip-rule:evenodd;stroke-linejoin:round;stroke-miterlimit:2" viewBox="0 0 1000 1000"><path d="M500 200C605.263 0 815.789 0 921.053 100c105.267 100 105.267 300 0 500C847.368 750 657.895 900 500 1000 342.105 900 152.632 750 78.947 600c-105.263-200-105.263-400 0-500C184.211 0 394.737 0 500 200Z" style="fill:#0082fc" transform="matrix(.89594 0 0 .89594 52.028 52.028)"/><path d="M34.3 72.2 19.1 56.9l4.4-4.4 12.1 12.1v-29l22 22-14.5 14.6 14.6 14.6-22 22V79.7L23.5 91.8l-4.4-4.4 15.2-15.2Zm7.5-21.6v14l7-7-7-7Zm0 43.1 7-7-7-7v14Z" style="fill:#fffffc" transform="translate(217.522 26.58) scale(7.35623)"/></svg>